<svg id="logo.47b5fefbb6b3" xmlns="http://www.w3.org/2000/svg" width="77.788" height="14.521" viewBox="0 0 77.788 14.521">
  <path id="Path_1" data-name="Path 1" d="M0,0H4.512V14.521H0ZM26.863,14.521H42.421V11.046h-11.2V8.09H26.863Zm-9.179-3.734h-7V8.3H6.327v6.223H18.462c4.356,0,6.949-2.022,6.949-5.6V8.3H21.055C20.951,10.268,19.551,10.787,17.684,10.787Zm-7-7.157h7.053c1.815,0,3.215.519,3.319,2.489h4.356V5.6c0-3.578-2.593-5.6-6.949-5.6H6.275V6.067h4.356V3.63Zm31.738-.259V0H26.863V6.067h4.356v-2.7Z" fill="#97999b"/>
  <path id="Path_2" data-name="Path 2" d="M63.1,11.4h9.49v2.593H63.1Z" transform="translate(-30.377 -5.488)" fill="#f9423a"/>
  <path id="Path_3" data-name="Path 3" d="M111.463,8.3h-7.779l-4.252,4.771L95.128,8.3H87.4l-5.6,6.223h5.7l3.734-4.512,3.734,4.512h8.868l3.734-4.512,3.734,4.512h5.86ZM99.432,1.452l4.149,4.615h7.986L117.012,0h-5.7l-3.734,4.512L103.84,0H95.024L91.238,4.512,87.5,0H81.8l5.445,6.067h8.038Z" transform="translate(-39.379)" fill="#97999b"/>
</svg>
